<svg xmlns="http://www.w3.org/2000/svg" viewBox="0 0 619.2 989.41"><defs><style>.cls-1,.cls-2{fill:none;stroke:#eee;stroke-miterlimit:10;}.cls-1{stroke-width:39px;}.cls-2{stroke-width:14px;}</style></defs><title>Asset 1</title><g id="Layer_2" data-name="Layer 2"><g id="Layer_1-2" data-name="Layer 1"><path class="cls-1" d="M599.7,309.6c0-160.22-129.88-290.1-290.1-290.1S19.5,149.38,19.5,309.6c0,133.53,90.22,246,213,279.73V713H106.46V863.34H232.53V969.91H386.67V863.34H512.74V713H386.67V589.33C509.48,555.57,599.7,443.13,599.7,309.6Z"/><path class="cls-2" d="M240.6,473.64a75.23,75.23,0,0,0-3-14.7c-1.8-6.4-4.1-12.6-6.4-19.4,2.2,0,2.7-5.4,1-7.8a39.51,39.51,0,0,0-3.3-4.7c-3.6-3.8-7.4-7.5-11-11.3-3.9-4.1-7.5-8.3-11.5-12.3-3-3.1-6.5-5.8-9.6-8.8s-6.7-6.2-9.3-9.8c-6.6-9.2-15.5-16.3-23-24.7-3.8-4.2-6.8-9.1-10.1-13.7a1.4,1.4,0,0,0-.5-.4c3.8-6.2.6-12.6.5-18.9a118.51,118.51,0,0,1,1.1-16.8c1-8.5,1.5-17.1,3.6-25.3,2.3-9.2,6-18,9.3-27,1.9-5.3,4.1-10.6,6.4-15.7,3-6.5,5.6-13.3,9.6-19.3s10.6-8.4,17.7-7.9c9.9.7,19.5-.2,28.3-4.7,8.3-4.2,17.2-4.8,26.2-4.9,1,0,2.6-.4,2.8-.9,1.8-6.9,8.4-7.3,13.2-10.3,3.6-2.2,6.6-5.4,10-8.2,2,1.6,4.6,3.5,7.1,5.4a2.7,2.7,0,0,1,.8.7c3.4,6,7.4,11.8,9.9,18.2,1,2.5-1.3,6.5-2.4,9.7a24.65,24.65,0,0,1-3.5,6.6c-4.6,6-9.4,11.9-14.4,17.5a91.17,91.17,0,0,1-10.4,10.2c-7.2,5.8-14.1,12.1-22.2,16.2-4.5,2.3-11.1.6-16.8.6a14,14,0,0,1-4.1-.4c-2.7-.9-5.6-1.6-7.9-3.1-2.8-2-5.1-4.8-7.7-7.4-5.6,2.2-5.9,3.2-2.8,8.7,3.5,6.1,8.2,10.1,15.7,10.2a82.86,82.86,0,0,1,12.1,1.3c1.5.3,3.9,1.6,4,2.6.2,2.7,0,5.9-1.4,8.1-1.1,1.8-2.2,2.8-2.3,5.4,0,5.5-.5,10.8-5.3,15.4-5.6,5.4-9.6,12.3-14.3,18.6-2.9,3.8-6.3,7.4-8.2,11.7-1,2.3.7,5.8,1.1,8.7l2.1.6c1.9-2.8,3.8-5.7,5.8-8.5,3.9-5.3,8.1-10.4,12-15.7,2.4-3.3,4.5-7,6.8-10.4,1.3-2,2.4-3.9,5.8-3.3,2.9.5,6.2-1,9.4-1.7,2.8-.6,5.2-2.3,7.5,1.9s5.9,7.7,9.4,11c1.2,1.1,3.8.7,6.1,1.1.5-2.7.9-5.1,1.4-7.7,3.5,1.2,6.9,2.5,10.4,3.5.9.2,2.8-.5,2.9-1a11.39,11.39,0,0,0,0-5.8c-1.1-3.5.6-10.4,3.6-11.9.6-.3,1.6.4,2.5.7,3.8,1.3,7.6,2.6,11.5,3.7a91,91,0,0,0,11.5,2.6c2.3.4,5.5-.9,6.7.3a26,26,0,0,1,5.4,8.7c1.8,4.2,5.3,7.2,7.3,10.9,1.9,3.5,5,4.4,7.3,6.7,4.6,4.4,9.9,6.7,17.8,4.3q2.4,10.35,4.8,20.4c1.3,5.4,3.2,10.7,3.8,16.2.8,6,.4,12.2.6,18.3.1,2.4.5,4.8.4,7.2a61.93,61.93,0,0,1-1.3,7.2,13.34,13.34,0,0,0,8.3-10.9,77.13,77.13,0,0,0-.1-19.2c-.6-6.2-2.3-12.3-3.6-18.5-1.2-5.3-2.7-10.6-4-15.9-.3-1.3-.4-2.7-.6-4-1.4-6.6-5.4-9.8-12.3-10.2-9.5-.6-14.4-7.5-18.8-15a115.08,115.08,0,0,0-6.9-9.4c2.9-2.2,6.3-4.6,8.7-6.4,2.7,1.9,5.8,4,8.9,6.3,1.8,1.3,4,1.8,4.8,4.9s4,5.7,6.2,8.4c3.4,4.1,6.7,8.4,10.4,12.2,1.5,1.5,4.1,2.3,6.4,2.8s4.5-.2,4.9,3.5a5.42,5.42,0,0,0,5.1,4.7c2.6.3,5.1,2.7,7.5,4.2s8.7,0,9.4-2.5c.4-1.6.1-3.4.1-5.1l-4.8.6c-1.7-.7-3.6-1.7-5.6-2.4s-4.8-5-5.8-7-3.3-3.6-5.3-4.8c-4.9-2.7-9.9-5.1-13.2-10.2-1.7-2.5-5-4-8.1-6.4,11.2-.1,19.8-4.8,27.2-13.7.6,6.8,4.5,8.4,8.5,10.6,3.7,2,7.8,1.8,11.5,3.1,7.4,2.6,13.7-2,20.5-2.5.7-.1,1.8-.8,1.8-1.3.6-7.7,7.8-10.3,11.9-15.1,6.1-7.1,9-15,9.4-24.5.2-5-3.2-9.2-1.3-14.4.8.7,2.3,1.2,2.3,1.9.5,6,6.8,11.7,1.3,18.1.1,12.3-5.2,23.5-7.3,35.4-1.3,7.6-2.3,15.6-5.4,22.6-1.9,4.3-1.7,8.8-3.4,12.7-4.1,9.1-3.2,19.1-5.8,28.5-1.5,5.3.7,11.7-.7,17-1.3,5-1.3,11.1-6.3,14.8-.7.5-.7,2-1,3.1.1.4.2.7.3,1.1l-.6-.6c-1.6,2.2-4.2,4.2-4.7,6.6-.8,4.2-4.1,6.3-6.3,9.3-4.2,5.6-8.3,11.2-12.4,16.8-3.2,4.3-6.8,8.3-9.5,12.8-2.1,3.4-6.7,6.5-2.8,11.9,1.2,1.7.4,4.9.5,7.4.07,2-15.14,92-17.75,110.89a3.86,3.86,0,0,0,3,4.3l11.59-.07c-.27-4.28,7.92-116.93,7.66-121.22a8.38,8.38,0,0,1,1.7-5c4.8-6.7,9.9-13.3,14.8-20,7.6-10.4,15.4-20.7,22.4-31.5,5.3-8.2,5.5-18.1,7-27.6,2.9-18.4,7.4-36.6,11.3-54.8,4-18.6,8.4-37.1,12-55.8.9-4.4,3.4-9,.5-13.9s-5-10.4-8.1-15.3c-2.1-3.3-2.9-6.4-2-10.2.8-3.4,1.4-6.8,2.1-10.2,1.5-8.3,1.5-16-3.3-23.8-9.8-15.9-26.3-20.9-42.8-12.3a12.87,12.87,0,0,1-2.2.6c-3.2-10.8-9.3-19.8-16.9-27.8-3.3-3.5-6.8-6.8-12.3-5.8-4.7.8-9.5,2-14.2,1.9-5.7-.2-10,1.5-13.5,5.9-1.3,1.6-2.7,3.2-3.9,4.5-1.7-3.2-2.9-6.6-5.1-9.1-5.4-6.1-10.8-12.1-17-17.3-5.5-4.6-12.1-6.6-19.4-3.1-2.6,1.3-5.9,2.5-8.6,2.1-5.2-.8-8.7,1.7-11.8,4.9-4.6,4.9-8.8,10.2-13.29,15.4h0a1.35,1.35,0,0,1-.31-.2,5.24,5.24,0,0,1-1.1-1c-5.8-7.8-12.5-12-23.3-10.2-12.5,2.1-23.3,5.2-30.8,16.4-9.1,13.5-16,27.4-14.9,44.6a23.25,23.25,0,0,0-3.7.4c-9.2,1.8-17.8,4.8-22.1,14.1-5.2,11.1-10.6,22.2-15.1,33.6-5.5,14-10.5,28.3-11.5,43.6-.2,2.6-1.9,5-2.9,7.6v47c.6.2,1.4.2,1.8.7,4.5,5.3,8.8,10.8,13.5,15.9,15.8,17,31.8,33.9,47.8,50.8,1.7,1.8,4.6,2.9,5.4,5a298.27,298.27,0,0,1,10.9,28.5c2.45,8,8.32,134,10.27,142.14h8.24C244.46,594.68,240.74,475.22,240.6,473.64Zm49.6-197.3c-.1,5.7-3.2,11.3-2.8,16.7s-2.5,7.6-5.5,10.8c-1.3,1.3-.7,4.4-.9,6-3.2.7-6.3,2-9.3,1.8-1.9-.1-3.8-2.3-5.4-3.8-2.2-2.1-3.8-4.7-6.2-6.5-.8-.6-2.9.9-4.5,1-3.5.4-7.1.5-11.1.7,1.4-1.9-2.3-6.1,3.6-6.6.7-.1,1.5-4,1.7-6.2s-.8-4.3-.9-6.4c0-3.9,1.2-6.4,5.6-8.1,5.2-2.1,9.8-5.8,14.3-9.4,6.8-5.4,13.2-11.2,20.6-17.6C289.7,257.74,290.5,267,290.2,276.34Zm130.5,25.3c-7.7-.4-15.7-.3-22.1-5.9-1-.9-1.2-2.8-1.8-4.2,7.9,8.3,17.6,5.6,27.5,6.8C423,299.64,421.8,301.64,420.7,301.64Zm-17.8-25.5c2.7-9.7,1.1-19.3.6-29.1-.3-6.5.7-13.1,1.4-19.6.6-5.9,1.7-11.8,2.5-17.8.2-1.7,1.1-3.4.8-4.9-1.7-9.8,5.7-12.9,12.1-16.4,1.4-.8,3.9-.1,5.6.6a123.05,123.05,0,0,1,13.4,5.8,11.66,11.66,0,0,1,4.3,4.5c2.6,3.9,4.9,8,7.6,12.4-1.9,5.8-3.9,11.3-5.4,17-.7,2.7-.5,5.7-.7,8.6-.4,6.6-.9,13.2-1,19.8-.1,3.7,1.1,7.4.8,11.1-.4,4.6-1.4,9.4-4.9,12.9a109.85,109.85,0,0,1-10.4,8.8,6.18,6.18,0,0,1-4.1,1.2c-4.4-.4-8.7-1.4-13.1-1.8C403.2,288.14,400.5,284.94,402.9,276.14Zm-57-88.5c.7-6.4,1.8-12.8,7.2-17.4,1.7-1.4,2.3-4,4-5.5,1.3-1.2,3.9-2.6,5.1-2.1,5,2,9.1-.6,13.4-1.9,5.4-1.7,9.6.1,11.4,5.6a2.47,2.47,0,0,0,.4.9c1.9,1.8,4.2,3.3,5.7,5.3,2.8,3.6,6,7.3,7.5,11.5,1.1,3.1.2,7-.2,10.5-.8,7.1-1,14.4-3,21.2-2.4,8.3-2.2,16.7-3.2,25-.6,5.2.5,10,.7,15,.2,6.4,1.5,12.8-1,19.1-1,2.5-.7,5.6-1.7,8.1-2.3,5.8-8,8.2-12.9,11.2-2.8,1.7-5.4,4-8.4,5.2-6.7,2.7-13.1,2.7-18.9-2.6-1.6-1.5-4-2.2-6-3.3l.3-.9c2,.2,3.9.3,6,.5l2.7-9.9c1.3-4.9,3.5-9.8,3.7-14.8.3-8.5,1.3-17.1-2.5-25.5-2.2-4.9-2.4-10.6-3.7-15.9a9.23,9.23,0,0,0-1.5-2.5c-.6-.8-1.7-1.5-1.9-2.3-.9-5.9-.4-12.3-2.6-17.7C344.1,198.54,345.3,193.14,345.9,187.64Zm-59.6-33.2c6.1-10.2,19.8-16,30.4-12.7,10.8,3.4,14.9,15,19,26.6,7.1,20.1,1.7,26.1,6.3,55.2,3.4,21.3,7.2,24.3,6.3,39.3-.7,11-1.5,24.6-12.1,32.4a29.87,29.87,0,0,1-29.8,2.5c-2.6-1.3-8.4-4-11.4-10.1-4.3-8.8,1.6-15.7,6.3-36.2a132.71,132.71,0,0,0,3.8-34.3c-.5-13.3-.7-21.5-6.3-29.2-6.3-8.6-13.6-8.8-15.9-17.1C281.1,163.34,285.3,156.24,286.3,154.44Zm-76.8,41.4c1.8-4.1,3-8.4,4.4-12.6a11.2,11.2,0,0,1,.9-2.2c3.3-4.5,7.5-8.6,9.6-13.5,2.9-6.7,8.1-9.7,14.2-11.7,4-1.3,8.3-1.6,12.5-2.4a19.8,19.8,0,0,0,2.6-.6c1.8-.7,4.7.6,6.1,2.3,2.7,3.3,6,6.1,8.4,9.6,1.8,2.6,2.6,5.8,3.7,8.8a12.55,12.55,0,0,1,1.2,4.6c0,1.7,0,4.4-1,5.1-6.1,4.3-12.7,8-18.7,12.4-3.1,2.2-6,1.6-9.3,1.6-6.7,0-12.7,3.3-18.9,5.7a6,6,0,0,1-2.3.4c-.6-3.1-.7-5.4-1.7-7.3-.5-.8-4-1.1-4.3-.6a100.45,100.45,0,0,0-4.1,10.3C209.9,205.64,207.5,200.44,209.5,195.84Z"/></g></g></svg>