<svg xmlns="http://www.w3.org/2000/svg" viewBox="0 0 217.26 201.12"><defs><style>.cls-1{fill:#eee;}.cls-2{fill:#00adb5;}.cls-3{fill:#fff;fill-opacity:0.1;}</style></defs><title>Asset 21</title><g id="Layer_2" data-name="Layer 2"><g id="Layer_1-2" data-name="Layer 1"><path class="cls-1" d="M215.75,96.94,185.82,69.3v-42a7,7,0,0,0-7-7H168.06a7,7,0,0,0-7,7V46.45L112.26,1.38a5.46,5.46,0,0,0-7.26,0L1.51,96.94c-3.23,3-.94,8.06,3.62,8.06H35.78v81.12a15,15,0,0,0,15.15,15l35.89-.35V158.7c0-10.36,9.11-18.76,20.34-18.76h4.18c11.23,0,20.34,8.4,20.34,18.76v41.63l34.64-.34a15,15,0,0,0,14.86-15V105h30.95C216.69,105,219,99.91,215.75,96.94Z"/><path class="cls-2" d="M102.06,136.12h14.78a15.61,15.61,0,0,1,15.61,15.61v48.39a0,0,0,0,1,0,0h-46a0,0,0,0,1,0,0V151.73A15.61,15.61,0,0,1,102.06,136.12Z"/><path class="cls-3" d="M89.42,154.17c-.73,4.86.11,31.63,3.16,35l25.56-43c-2.23-4.14-6.16-4.48-11.15-5.19A15.62,15.62,0,0,0,89.42,154.17Z"/></g></g></svg>