<svg xmlns="http://www.w3.org/2000/svg" viewBox="0 0 362.89 287.25"><defs><style>.cls-1{fill:#eee;}.cls-2{fill:#00adb5;}</style></defs><title>Asset 27</title><g id="Layer_2" data-name="Layer 2"><g id="Layer_1-2" data-name="Layer 1"><path class="cls-1" d="M334.13,247.14H16.57a3.68,3.68,0,0,1-3.68-3.68V28.76A28.76,28.76,0,0,1,41.65,0H334.13a28.76,28.76,0,0,1,28.76,28.76V218.38A28.76,28.76,0,0,1,334.13,247.14Z"/><path class="cls-1" d="M5.54,286.45l61.79-51.7a3.38,3.38,0,0,0,.32-4.88l-46.44-50.4a3.38,3.38,0,0,0-5.82,1.79L0,283.36A3.37,3.37,0,0,0,5.54,286.45Z"/><rect class="cls-2" x="45.89" y="47.07" width="283" height="19.12"/><rect class="cls-2" x="45.89" y="92.68" width="283" height="19.12"/><rect class="cls-2" x="45.89" y="138.28" width="283" height="19.12"/><rect class="cls-2" x="45.89" y="183.89" width="283" height="19.12"/></g></g></svg>