<svg xmlns="http://www.w3.org/2000/svg" viewBox="0 0 127.7 194"><defs><style>.cls-1{fill:#eee;}.cls-2{fill:#00adb5;}</style></defs><title>Asset 22</title><g id="Layer_2" data-name="Layer 2"><g id="Layer_1-2" data-name="Layer 1"><rect class="cls-1" x="36.63" y="31.62" width="63" height="119" transform="translate(-36.14 45.6) rotate(-29.63)"/><path class="cls-1" d="M-1.38,8.62h60a0,0,0,0,1,0,0v16a12,12,0,0,1-12,12H10.66a12,12,0,0,1-12-12v-16A0,0,0,0,1-1.38,8.62Z" transform="translate(64.69 28.14) rotate(150.37)"/><polygon class="cls-1" points="127.29 194 127.7 131.33 73.22 162.32 127.29 194"/><polygon class="cls-2" points="127.37 193.98 110.51 184.11 127.49 174.44 127.37 193.98"/></g></g></svg>