<svg xmlns="http://www.w3.org/2000/svg" viewBox="0 0 198.5 188.17"><defs><style>.cls-1{fill:#eee;}.cls-2{fill:#00adb5;}</style></defs><title>Asset 24</title><g id="Layer_2" data-name="Layer 2"><g id="Layer_1-2" data-name="Layer 1"><path class="cls-1" d="M182.82,0H15.68A15.68,15.68,0,0,0,0,15.68V172.49a15.68,15.68,0,0,0,15.68,15.68l146.66-.74L197.76,152l.74-136.33A15.68,15.68,0,0,0,182.82,0Zm-16,138.73H31V122.49H166.77Zm0-30.26H31V92.24H166.77Zm0-30.25H31V62H166.77Zm0-30.26H31V31.73H166.77Z"/><path class="cls-2" d="M180.12,150.39l17.94,1.91-35.4,35.44-1.92-17.94A17.62,17.62,0,0,1,180.12,150.39Z"/></g></g></svg>