<svg xmlns="http://www.w3.org/2000/svg" viewBox="0 0 190.96 207"><defs><style>.cls-1{fill:#eee;}.cls-2{fill:#00adb5;}</style></defs><title>Asset 23</title><g id="Layer_2" data-name="Layer 2"><g id="Layer_1-2" data-name="Layer 1"><path class="cls-1" d="M184.63,176.44,127.9,119.71a72.62,72.62,0,1,0-16.34,14.21L184.63,207A21.61,21.61,0,0,0,184.63,176.44ZM71.57,126.31a54.74,54.74,0,1,1,54.74-54.74A54.74,54.74,0,0,1,71.57,126.31Z"/><path class="cls-2" d="M91.39,35.84a57.23,57.23,0,0,1,19.15,7.06A47.49,47.49,0,0,0,79.7,23.11a48.25,48.25,0,0,0-55,58.41C31,50.74,60.51,30.37,91.39,35.84Z"/></g></g></svg>