<svg xmlns="http://www.w3.org/2000/svg" viewBox="0 0 564.01 477.69"><defs><style>.cls-1{fill:#2c2d26;}.cls-2,.cls-4{fill:#eee;}.cls-3{fill:#aaa899;}.cls-4{stroke:#222831;stroke-miterlimit:10;stroke-width:7px;}.cls-5{font-size:16.59px;fill:#222831;font-family:Raleway-Bold, Raleway;font-weight:700;}</style></defs><title>Emma</title><g id="Layer_2" data-name="Layer 2"><g id="Layer_1-2" data-name="Layer 1"><path class="cls-1" d="M178.92,477.69H81.28c-30,0-91-81.19-80-111.19L26.92,309a7.79,7.79,0,0,1,2.38-5.58A16.16,16.16,0,0,1,32,300.81c1.43.1,2.64-.2,3.19-1.69l1.49-.87c2.21.3,1.91,2.54,2.88,4.14,2.3-2.15,1.35-5.17,2.7-7.31,6.18-5.73,12.53-11.31,20.58-14.21a52.3,52.3,0,0,0,15-8.67c6.43-5.15,5.77-18.42-1.24-22.68-2.92-1.78-3.63-4.17-4.15-7.37-.71-4.35,3-6.79,3.43-10.57A113,113,0,0,1,85.69,198,45.77,45.77,0,0,1,127,171.18c2.31,0,4.63.33,6.92.13,10.28-.86,20,.86,28.24,7.27,9.33,7.24,16.13,16.12,15.77,28.81-.07,2.48-.69,5.43.8,7.34,4.82,6.13.92,13.48,3.38,20.18,2,5.5-.18,12.07-2,18.2-4.46.25-7.39,2.55-9,6.72a5.6,5.6,0,0,1-3.91,3.55c-6.47,1.84-11.12,8.95-10.33,15.76,2.83,1.37,5.86.59,8.81.71,5.61.21,9.92,2.09,13.3,7.17,3.11,4.67,7.63,8.19,14.27,6.55,3.83-.95,7.59-.39,10.65,2.66,1.72,1.71,3.82,2.88,6.29,1.45,5.08-2.93,9-.93,13.08,2.39,7,5.67,14.78,9.95,24.31,9.81a7.94,7.94,0,0,1,5.14,1.58c2.65,2.1,5.5,1.76,8.44.41,3.42-1.57,7-3.66,10.79-2.07s7.44,1.52,11.23,1.49a19.09,19.09,0,0,1,7.27,1.3c5.67,2.21,10.47.56,14.64-4,2.8-3.07,4.16-7.22,7.8-9.64,7-4.69,27.3-16.28,28.81-16.65,4.22,2.86-.53,5.07-2.31,6.27-8.6,5.76-7.53,20.19-.09,25.56,4.56,3.3,8.12,2.26,9.36-2.93-4.76-2-6.06-4.39-3.15-6.82,2.67-2.21,2.89-4.65,2.65-7.47a15.19,15.19,0,0,1,2.49-9.94,34.07,34.07,0,0,0,4.18-9.51c1.85-6.42,6.56-10.5,11.19-14.53,1,.44,1.38.93,1.4,1.67a2.08,2.08,0,0,0,1.27,2.23,17.51,17.51,0,0,0,2.14-.26c5.2-1.16,6.13-.34,5.77,4.86-.16,2.32,0,4.65,0,7-.11.36-.23.73-.34,1.1l1.12-.28c4.94.21,6.37-3.94,8.62-7,.69-.94,1.17-2.1,2.53-2a1.94,1.94,0,0,1,1.88,1.95c-.19,5.22,4.65,4,7.21,3.28,1.42-.42-4.68,4.29-6.56,6.37-5,5.55-9.61,11.63-15.36,16.28-4.74,3.84-6.26,7.52-5.55,13.46,1.11,9.35-2.85,16.44-11.75,20.38-2.48,1.1-4.22,3.2-6.24,4.93-4.87,4.16-8.48,10-15.26,11.64-1.2-.67-1.88-.24-2.17,1a13.43,13.43,0,0,0-3.94,4c-.84.49-1.71.94-2.53,1.47-10.26,6.68-20.19,14-32.51,16.61-4.79,1-9.74,1.32-14.2,3.61l-19.43.14c-.21.46-2.05-.2-1.47,0,0,0-29.29-1.07-32.11-1.79l-1.87-1.07a1.16,1.16,0,0,0-1.46-.08l-2.09-.11c-1.85-1.39-3.78-2.51-6.23-1.69-4.68-1.07-9.39-2-13.71-4.23a5,5,0,0,0-7.3,3.07,14.62,14.62,0,0,0-.51,6c1.1,10.07-.46,19.76-3.38,29.47-2.14,7.14-7.08,13.15-7.85,20.75-2.38,2.65-5,2.84-8,.81a7.29,7.29,0,0,0-3.59-1.18c-11.43-.82-22.87-1.52-34.3-2.28-3-.2-4.32,1-4.06,4.07.22,2.64-.12,5.28.76,7.9,1.32,3.95,5.73,7.6,9.81,7.21,4.8-.48,9.51-1.39,9.65,5.78,0,.45.8.93,1.29,1.33,3,2.49,2.94,4.21-.83,5.79-3.35,1.4-7,2.18-10.41,3.34-6,2-6.48,3.41-3.06,9.85,6.75-4,15.06-3.79,21.92-7.68-4.65-12.59-4.63-12.52,8.19-14.75,3-.52,3.7.39,3.16,3.07-.62,3.11-1.54,6.46.16,9.27,2.23,3.69,3,7.62,3.49,11.71C177.5,472.59,179.51,475.05,178.92,477.69ZM108.56,284.53c6.9,6.6,15.7,8,25,7.45,2.41-.13,5.44-.26,6.37-3,1-3-2.21-3.17-3.87-4.22-1.3-.81-1.95-1.74-1.65-3.25s1.59-1.46,2.75-1.48c1.5,0,3,0,4.49,0,5.41-.21,7.28-2.56,6.61-8.4-7.88,4.48-14.18-4.36-21.55-1.93-2.74-7.32,2-10.77,7.18-12.9,3.92-1.61,7.82-.11,11.68.61,3.48.64,4.23-.85,2.56-4.23a15.18,15.18,0,0,0-1.77-2.73c-2.81-3.47-1.75-5.85,2.18-7.05,4.11-1.25,5.25-3.74,3.79-7.56-2-5.3-.51-10.36.6-15.75,4.41.88,8.61,1.39,12.74.69,2.6-8.57-3.92-12.13-8.31-16.87-3.27-3.53-6.78-4.13-11-2-1.68.83-3.53.2-5.36-.1-4.76-.77-9.95-1.77-14.26.28-10.75,5.11-19.94,12.32-25.8,23.08-.9,1.66-1.21,3.92-4.37,4.32a10.19,10.19,0,0,0-1.92-2.4c-5.46-3.87-7.64-3-9.23,3.51A29.81,29.81,0,0,0,85,242.49c1.55,9.51,5.64,12.43,14,10.29-5.75,5.1-9.31,10.47-6.56,18.65,2.44,7.25,8.45,15.14,14.19,16C108.12,286.93,106.59,285,108.56,284.53ZM155,236.23c.4,5.16.65,9.51,2.7,13.54,1,2,3.4,3,4.42,1.7,2-2.69,5.22-5,4.89-9.08-.13-1.6-1.38-2.23-2.6-2.72C161.68,238.58,158.87,237.63,155,236.23Z"/><path class="cls-2" d="M341.81,284.22a1.38,1.38,0,0,1,0-1.91c3.39-3.76,3.47-9.25,6.43-13.26,5.87-8,53.5-22,53.5-12.07l-3.78,17.67a1.37,1.37,0,0,1-1,1.31c-3.2,1-6.73,2.69-6.5-3.78,0-1-.83-.87-1.91-.95-1.35-.11-1.66.55-2,1.66-1.79,6.2-11.23,9.31-11.1,7.46.36-5.2.64-14.93-4.56-13.77a17.51,17.51,0,0,1-2.14.26,2.08,2.08,0,0,1-1.27-2.23h0a1.34,1.34,0,0,0-2.22-1c-4.35,3.8-8.62,7.78-10.37,13.82a34.07,34.07,0,0,1-4.18,9.51,15.19,15.19,0,0,0-2.49,9.94c.24,2.82,0,5.26-2.65,7.47s-1.79,4.47,2.09,6.34a1.38,1.38,0,0,1,.7,1.69c-1.48,4.12-4.82,4.74-9,1.72-7.44-5.37-8.51-19.8.09-25.56C341,287.53,343.92,286.4,341.81,284.22Z"/><path class="cls-2" d="M108.56,284.53c-2,.51-.44,2.4-1.92,2.94-5.74-.9-11.75-8.79-14.19-16-2.75-8.18.81-13.55,6.56-18.65-8.35,2.14-12.44-.78-14-10.29a29.81,29.81,0,0,1,.34-11.89c1.59-6.52,3.77-7.38,9.23-3.51a10.19,10.19,0,0,1,1.92,2.4c3.16-.4,3.47-2.66,4.37-4.32,5.86-10.76,15.05-18,25.8-23.08,4.31-2.05,9.5-1.05,14.26-.28,1.83.3,3.68.93,5.36.1,4.26-2.11,7.77-1.51,11,2,4.39,4.74,10.91,8.3,8.31,16.87-4.13.7-8.33.19-12.74-.69-1.11,5.39-2.63,10.45-.6,15.75,1.46,3.82.32,6.31-3.79,7.56-3.94,1.21-5,3.6-2.15,7.09a14.26,14.26,0,0,1,2.07,3.4c1.22,2.88.34,4.12-2.89,3.52-3.86-.72-7.76-2.22-11.68-.61-5.17,2.13-9.92,5.58-7.18,12.9,7.37-2.43,13.67,6.41,21.55,1.93.67,5.84-1.2,8.19-6.61,8.4-1.49.05-3,0-4.49,0-1.16,0-2.43-.1-2.75,1.48s.35,2.44,1.65,3.25c1.66,1.05,4.91,1.23,3.87,4.22-.93,2.7-4,2.83-6.37,3C124.26,292.49,115.46,291.13,108.56,284.53Z"/><path class="cls-2" d="M181.1,469.23c-5.87-.21-4.33-7.91-6.21-11-1.7-2.81-.78-6.16-.16-9.27.54-2.68-.18-3.59-3.16-3.07-12.31,2.15-12.81,2.16-8.72,13.29a1.77,1.77,0,0,1-.89,2.2c-6.05,2.9-13,3.21-19,6.13a1.74,1.74,0,0,1-2.34-.82c-2.46-5.07-1.59-6.37,3.89-8.22,3.46-1.16,7.06-1.94,10.41-3.34,3.77-1.58,3.87-3.3.83-5.79-.49-.4-1.28-.88-1.29-1.33-.14-7.17-4.85-6.26-9.65-5.78-4.08.39-8.49-3.26-9.81-7.21-.88-2.62-.54-5.26-.76-7.9-.26-3.08,1.09-4.27,4.06-4.07,11.28.75,22.57,1.44,33.86,2.24a9.82,9.82,0,0,1,4.41,1.46c2.42,1.5,7-1.62,7.6-1.05,2,1.81,5.33,4.48,8.46,4.5a6,6,0,0,1,4.14,2.49c5.42,7.83,10.8,27.19,6.81,26.08,0,0,0,0,0,0-.36,1.67-5.21.66-7.58,1.65S182.39,469.27,181.1,469.23Z"/><path class="cls-2" d="M155,236.23c3.85,1.4,6.66,2.35,9.41,3.44,1.22.49,2.47,1.12,2.6,2.72.33,4.05-2.85,6.39-4.89,9.08-1,1.34-3.42.27-4.42-1.7C155.67,245.74,155.42,241.39,155,236.23Z"/><path class="cls-1" d="M42.27,295.08c-1.35,2.14-.4,5.16-2.7,7.31-1-1.6-.67-3.85-2.9-4.14"/><path class="cls-3" d="M376.3,279.52c.11-.37.23-.74.34-1.1"/><polygon class="cls-4" points="560.51 3.5 191.81 3.5 191.81 192.15 260.81 192.15 228.81 244 315.43 192.15 560.51 192.15 560.51 3.5"/><text class="cls-5" transform="translate(216.7 41.2)">“The history of progress is written in the <tspan x="0" y="19.91">blood of men and women who have </tspan><tspan x="0" y="39.82">dared to espouse an unpopular cause, </tspan><tspan x="0" y="59.73">as, for instance, the black man&apos;s right to </tspan><tspan x="0" y="79.65">his body, or woman&apos;s right to her soul.”</tspan><tspan x="0" y="119.47">- Emma Goldman </tspan></text></g></g></svg>